# xmcd
#
# Track frame offsets:
#	151
#	14481
#	31836
#	45579
#	62698
#	79215
#	102842
#	122273
#	137902
#	148727
#	166248
#	183917
#
# Disc length: 2677 seconds
#
# Revision: 1
# Processed by: cddbd v1.4PL0 Copyright (c) Steve Scherf et al.
# Submitted via: audiograbber 1.81.02
#
DISCID=990a730c
DTITLE=Don Williams - Silver Turns To Gold
DYEAR=2002
DGENRE=Easy Listening
TTITLE0=Pretend
TTITLE1=Shadow Land
TTITLE2=Crying In The Rain
TTITLE3=Wash It All Away
TTITLE4=Fever
TTITLE5=Restless
TTITLE6=You've Got A Friend
TTITLE7=Silver Turns To Gold
TTITLE8=Reason To Believe
TTITLE9=I Need You To Want Me
TTITLE10=If You Could Read My Mind
TTITLE11=What Does It Matter To Me
EXTD=
EXTT0=
EXTT1=
EXTT2=
EXTT3=
EXTT4=
EXTT5=
EXTT6=
EXTT7=
EXTT8=
EXTT9=
EXTT10=
EXTT11=
PLAYORDER=
